<svg width="40" height="28" viewBox="0 0 40 28" fill="none" xmlns="http://www.w3.org/2000/svg">
<path d="M22 8H2C0.9 8 0 8.9 0 10C0 11.1 0.9 12 2 12H22C23.1 12 24 11.1 24 10C24 8.9 23.1 8 22 8ZM22 0H2C0.9 0 0 0.9 0 2C0 3.1 0.9 4 2 4H22C23.1 4 24 3.1 24 2C24 0.9 23.1 0 22 0ZM32 16V10C32 8.9 31.1 8 30 8C28.9 8 28 8.9 28 10V16H22C20.9 16 20 16.9 20 18C20 19.1 20.9 20 22 20H28V26C28 27.1 28.9 28 30 28C31.1 28 32 27.1 32 26V20H38C39.1 20 40 19.1 40 18C40 16.9 39.1 16 38 16H32ZM2 20H14C15.1 20 16 19.1 16 18C16 16.9 15.1 16 14 16H2C0.9 16 0 16.9 0 18C0 19.1 0.9 20 2 20Z" fill="white"/>
</svg>
