<svg width="107" height="96" viewBox="0 0 107 96" fill="none" xmlns="http://www.w3.org/2000/svg">
<path fill-rule="evenodd" clip-rule="evenodd" d="M1.46447 1.46447C3.41709 -0.488155 6.58291 -0.488155 8.53553 1.46447L15.4242 8.35317L22.313 1.46447C24.2656 -0.488155 27.4314 -0.488155 29.384 1.46447C31.3366 3.41709 31.3366 6.58291 29.384 8.53553L22.4953 15.4242L29.384 22.313C31.3366 24.2656 31.3366 27.4314 29.384 29.384C27.4314 31.3366 24.2656 31.3366 22.313 29.384L15.4242 22.4953L8.53553 29.384C6.58291 31.3366 3.41709 31.3366 1.46447 29.384C-0.488155 27.4314 -0.488155 24.2656 1.46447 22.313L8.35317 15.4242L1.46447 8.53553C-0.488155 6.58291 -0.488155 3.41709 1.46447 1.46447Z" fill="#B8BAC1"/>
<path fill-rule="evenodd" clip-rule="evenodd" d="M77.0406 1.46447C78.9933 -0.488155 82.1591 -0.488155 84.1117 1.46447L91.0004 8.35317L97.8891 1.46447C99.8417 -0.488155 103.008 -0.488155 104.96 1.46447C106.913 3.41709 106.913 6.58291 104.96 8.53553L98.0715 15.4242L104.96 22.313C106.913 24.2656 106.913 27.4314 104.96 29.384C103.008 31.3366 99.8417 31.3366 97.8891 29.384L91.0004 22.4953L84.1117 29.384C82.1591 31.3366 78.9933 31.3366 77.0406 29.384C75.088 27.4314 75.088 24.2656 77.0406 22.313L83.9293 15.4242L77.0406 8.53553C75.088 6.58291 75.088 3.41709 77.0406 1.46447Z" fill="#B8BAC1"/>
<path fill-rule="evenodd" clip-rule="evenodd" d="M70.7992 41.5974C72.8958 43.3945 73.1386 46.551 71.3415 48.6476L63.5233 57.7688C62.5734 58.877 61.1867 59.5149 59.727 59.5149H45.3937C44.0676 59.5149 42.7958 58.9881 41.8582 58.0504L32.737 48.9292C30.7843 46.9766 30.7843 43.8107 32.737 41.8581C34.6896 39.9055 37.8554 39.9055 39.808 41.8581L47.4648 49.5149H57.4274L63.7489 42.1397C65.546 40.0431 68.7025 39.8003 70.7992 41.5974ZM18.2422 79.2724C18.2422 76.511 20.4808 74.2724 23.2422 74.2724H75.3634C76.6895 74.2724 77.9613 74.7992 78.8989 75.7369L90.6262 87.4642C92.5788 89.4168 92.5788 92.5826 90.6262 94.5352C88.6736 96.4879 85.5078 96.4879 83.5551 94.5352L73.2923 84.2724H23.2422C20.4808 84.2724 18.2422 82.0339 18.2422 79.2724Z" fill="#B8BAC1"/>
</svg>
