<svg width="22" height="23" viewBox="0 0 22 23" fill="none" xmlns="http://www.w3.org/2000/svg">
<path d="M20.4398 11.0499L11.2498 20.2399C10.124 21.3658 8.59699 21.9983 7.0048 21.9983C5.41262 21.9983 3.88565 21.3658 2.7598 20.2399C1.63396 19.1141 1.00146 17.5871 1.00146 15.9949C1.00146 14.4027 1.63396 12.8758 2.7598 11.7499L11.9498 2.55992C12.7004 1.80936 13.7183 1.3877 14.7798 1.3877C15.8413 1.3877 16.8592 1.80936 17.6098 2.55992C18.3604 3.31048 18.782 4.32846 18.782 5.38992C18.782 6.45138 18.3604 7.46936 17.6098 8.21992L8.4098 17.4099C8.03452 17.7852 7.52553 17.996 6.9948 17.996C6.46407 17.996 5.95508 17.7852 5.5798 17.4099C5.20452 17.0346 4.99369 16.5256 4.99369 15.9949C4.99369 15.4642 5.20452 14.9552 5.5798 14.5799L14.0698 6.09992" stroke="black" stroke-width="2" stroke-linecap="round" stroke-linejoin="round"/>
</svg>
